<svg width="63" height="63" viewBox="0 0 63 63" fill="none" xmlns="http://www.w3.org/2000/svg">
<path d="M31.0498 35.9999C41.9299 36.0001 51.1071 43.4236 53.9717 53.5702C53.7036 53.8432 53.4312 54.1118 53.1533 54.3749C50.581 44.367 41.6487 37.0001 31.0498 36.9999C20.6975 37.0001 11.9337 44.0279 9.13477 53.6805C8.86545 53.409 8.60213 53.1316 8.34277 52.8505C11.4299 43.0745 20.4286 36.0001 31.0498 35.9999Z" fill="#336772"/>
<path d="M31.501 6.80017C39.163 6.80039 45.4002 13.2102 45.4004 21.1498C45.4004 29.0895 39.1632 35.5001 31.501 35.5004C23.8386 35.5004 17.6006 29.0897 17.6006 21.1498C17.6008 13.2101 23.8387 6.80017 31.501 6.80017Z" stroke="#336772"/>
<path d="M30.1521 8.29912C30.9362 9.06254 31.1551 10.415 30.6784 12.1304C30.2074 13.8256 29.0811 15.7533 27.393 17.4871C25.705 19.2207 23.8086 20.3976 22.1267 20.9137C20.4245 21.436 19.0668 21.2533 18.2827 20.4899C17.4986 19.7264 17.2797 18.3741 17.7564 16.6586C18.2274 14.9635 19.3532 13.0364 21.0412 11.3026C22.7293 9.56886 24.6261 8.39147 26.3082 7.87533C28.0102 7.35306 29.3681 7.53572 30.1521 8.29912Z" fill="#336772" stroke="#336772"/>
<path d="M36.196 8.80021C37.1918 8.34647 38.5315 8.63317 39.9572 9.6996C41.3661 10.7535 42.7538 12.5024 43.7571 14.7044C44.7603 16.9063 45.1691 19.1004 45.04 20.855C44.9092 22.6307 44.2465 23.8297 43.2506 24.2834C42.2547 24.7372 40.9151 24.4506 39.4893 23.3841C38.0806 22.3302 36.6931 20.582 35.6898 18.3801C34.6865 16.1781 34.2774 13.9833 34.4066 12.2286C34.5374 10.453 35.2001 9.25396 36.196 8.80021Z" fill="#336772" stroke="#336772"/>
<path d="M27.109 42.3401C27.8556 42.0405 28.8347 42.1999 29.8656 42.8407C30.8902 43.4776 31.896 44.5545 32.6086 45.9318C33.3212 47.3092 33.584 48.6842 33.4574 49.783C33.33 50.8886 32.824 51.6439 32.0775 51.9434C31.331 52.243 30.3519 52.0836 29.3209 51.4428C28.2963 50.8059 27.2905 49.729 26.5779 48.3517C25.8653 46.9743 25.6026 45.5993 25.7292 44.5005C25.8566 43.3948 26.3625 42.6396 27.109 42.3401Z" fill="#336772" stroke="#336772"/>
<path d="M35.6776 42.3401C34.9311 42.0405 33.952 42.1999 32.921 42.8407C31.8964 43.4776 30.8906 44.5545 30.178 45.9318C29.4654 47.3092 29.2026 48.6842 29.3293 49.783C29.4567 50.8886 29.9626 51.6439 30.7091 51.9434C31.4556 52.243 32.4347 52.0836 33.4657 51.4428C34.4903 50.8059 35.4961 49.729 36.2087 48.3517C36.9213 46.9743 37.1841 45.5993 37.0574 44.5005C36.93 43.3948 36.4241 42.6396 35.6776 42.3401Z" fill="#336772" stroke="#336772"/>
<path fill-rule="evenodd" clip-rule="evenodd" d="M38.2236 49.9839C41.2966 48.9135 45.6699 52.2973 48.1542 57.7495L48.3232 58.1333C48.0389 58.3132 47.7512 58.4877 47.4609 58.6587C47.3913 58.4942 47.3192 58.3294 47.2441 58.1646C46.0178 55.4733 44.3283 53.3548 42.6366 52.0894C40.9114 50.7989 39.3984 50.5311 38.3447 51.0112C37.2909 51.4914 36.5 52.8088 36.3417 54.9575C36.1879 57.0472 36.6697 59.6852 37.874 62.354C37.5391 62.4228 37.2018 62.4834 36.8632 62.5415C34.445 57.0097 34.9019 51.481 37.9306 50.1011L38.2236 49.9839Z" fill="#336772"/>
<path fill-rule="evenodd" clip-rule="evenodd" d="M15.4429 57.8908C17.9271 52.4388 22.3005 49.055 25.3735 50.1252L25.6675 50.2424C28.6888 51.6191 29.1491 57.1244 26.7505 62.6428C26.4097 62.5912 26.071 62.5333 25.7339 62.4709C26.9301 59.8104 27.4087 57.1821 27.2554 55.0988C27.0971 52.9501 26.3062 51.6327 25.2524 51.1525C24.1987 50.6725 22.6856 50.9402 20.9604 52.2306C19.2688 53.4961 17.5793 55.6146 16.353 58.3058C16.253 58.5255 16.1582 58.7451 16.0679 58.964C15.7747 58.799 15.484 58.6303 15.1968 58.4562C15.2019 58.444 15.2062 58.4314 15.2114 58.4191L15.4429 57.8908Z" fill="#336772"/>
<path d="M21.812 4.63835C23.7347 3.7623 25.6643 3.44011 27.2159 3.60562C28.7803 3.77252 29.8633 4.41597 30.2962 5.36579C30.729 6.31569 30.5037 7.55519 29.6032 8.84519C28.71 10.1247 27.2007 11.3693 25.278 12.2453C23.3554 13.1212 21.4265 13.4432 19.875 13.2777C18.3107 13.1107 17.2275 12.4674 16.7947 11.5175C16.362 10.5676 16.5871 9.32807 17.4877 8.03809C18.3809 6.75869 19.8895 5.51439 21.812 4.63835Z" fill="#336772" stroke="#336772"/>
<path d="M27.6451 10.3327C27.6778 9.42597 28.2197 8.57747 29.1607 7.95123C30.1008 7.32559 31.4076 6.94863 32.8566 7.00094C34.3053 7.05333 35.5808 7.52351 36.4733 8.21523C37.3667 8.90769 37.846 9.79306 37.8133 10.6998C37.7804 11.6063 37.2385 12.455 36.2976 13.0812C35.3576 13.7066 34.0514 14.0828 32.6028 14.0305C31.1539 13.9782 29.8776 13.5089 28.985 12.8172C28.0918 12.1248 27.6125 11.2393 27.6451 10.3327Z" fill="#336772" stroke="#336772"/>
<path fill-rule="evenodd" clip-rule="evenodd" d="M30.3184 26.1C29.6389 27.1487 27.8056 27.9007 25.6504 27.9008L25.1445 27.8861C23.2121 27.7792 21.6092 27.0652 20.9834 26.1H22.4102C22.4773 26.143 22.5493 26.1884 22.6289 26.2318C23.3513 26.6258 24.418 26.9008 25.6504 26.9008C26.8828 26.9007 27.9495 26.6258 28.6719 26.2318C28.7515 26.1884 28.8235 26.1431 28.8906 26.1H30.3184Z" fill="#336772"/>
<path d="M42.6348 26.1C41.9552 27.1487 40.1219 27.9007 37.9668 27.9008L37.4609 27.8861C35.5285 27.7791 33.9256 27.0653 33.2998 26.1H34.7266C34.7937 26.1431 34.8657 26.1884 34.9453 26.2318C35.6677 26.6258 36.7344 26.9007 37.9668 26.9008C39.1991 26.9007 40.2659 26.6258 40.9883 26.2318C41.0678 26.1884 41.1399 26.143 41.207 26.1H42.6348Z" fill="#336772"/>
<circle cx="31.5" cy="31.5" r="31" stroke="#336772"/>
</svg>
